<svg width="222" height="78" viewBox="0 0 222 78" fill="none" xmlns="http://www.w3.org/2000/svg">
<rect width="222" height="78" rx="2" fill="black"/>
<path d="M86.331 53.416H84.048V57.946H82V46.166H86.143C87.503 46.166 88.551 46.472 89.292 47.081C90.032 47.691 90.4 48.574 90.4 49.729C90.4 50.516 90.21 51.178 89.83 51.709C89.45 52.241 88.919 52.649 88.24 52.935L90.886 57.841V57.947H88.692L86.328 53.416H86.331ZM84.048 51.766H86.153C86.844 51.766 87.382 51.59 87.772 51.242C88.162 50.894 88.354 50.418 88.354 49.813C88.354 49.209 88.174 48.693 87.816 48.347C87.458 48.002 86.923 47.824 86.21 47.814H84.048V51.766ZM100.887 52.688H96.048V56.313H101.704V57.947H94V46.165H101.648V47.815H96.048V51.068H100.887V52.688ZM111.624 55.205H107.059L106.104 57.949H103.977L108.429 46.166H110.265L114.724 57.949H112.587L111.624 55.205ZM107.634 53.555H111.049L109.342 48.665L107.634 53.555ZM126.537 54.112C126.418 55.368 125.954 56.35 125.145 57.053C124.335 57.756 123.26 58.109 121.917 58.109C120.979 58.109 120.153 57.887 119.437 57.441C118.722 56.996 118.171 56.362 117.781 55.543C117.394 54.723 117.192 53.771 117.174 52.685V51.585C117.174 50.475 117.372 49.495 117.764 48.648C118.156 47.802 118.724 47.148 119.459 46.688C120.195 46.23 121.046 46 122.013 46C123.314 46 124.36 46.353 125.152 47.057C125.944 47.76 126.406 48.757 126.537 50.047H124.498C124.402 49.201 124.155 48.589 123.758 48.214C123.361 47.839 122.781 47.651 122.013 47.651C121.123 47.651 120.439 47.977 119.963 48.628C119.484 49.28 119.242 50.233 119.23 51.491V52.535C119.23 53.808 119.457 54.78 119.913 55.452C120.37 56.12 121.036 56.456 121.917 56.456C122.722 56.456 123.326 56.276 123.731 55.913C124.136 55.55 124.392 54.951 124.501 54.109H126.539L126.537 54.112ZM138.302 47.817H134.628V57.949H132.597V47.817H128.955V46.165H138.302V47.815V47.817ZM144.58 46.166H146.619V54.428C146.619 55.555 146.266 56.451 145.562 57.115C144.859 57.779 143.929 58.11 142.774 58.11C141.545 58.11 140.595 57.799 139.926 57.18C139.257 56.56 138.922 55.696 138.922 54.59H140.96C140.96 55.217 141.116 55.686 141.427 56.002C141.737 56.318 142.187 56.476 142.774 56.476C143.324 56.476 143.763 56.293 144.089 55.931C144.415 55.565 144.578 55.064 144.578 54.421V46.165H144.58V46.166ZM156.773 54.914C156.773 54.396 156.59 53.996 156.228 53.717C155.865 53.438 155.206 53.154 154.256 52.868C153.306 52.582 152.551 52.264 151.991 51.913C150.917 51.239 150.379 50.358 150.379 49.275C150.379 48.325 150.767 47.543 151.542 46.928C152.316 46.314 153.321 46.006 154.557 46.006C155.376 46.006 156.107 46.156 156.751 46.46C157.367 46.7393 157.891 47.1864 158.264 47.75C158.631 48.308 158.814 48.927 158.814 49.608H156.776C156.776 48.994 156.583 48.513 156.198 48.165C155.813 47.817 155.26 47.641 154.542 47.641C153.874 47.641 153.353 47.785 152.985 48.071C152.615 48.357 152.43 48.757 152.43 49.268C152.43 49.7 152.63 50.06 153.03 50.348C153.429 50.638 154.086 50.918 155.004 51.19C155.922 51.461 156.657 51.772 157.212 52.12C157.768 52.468 158.175 52.868 158.434 53.317C158.693 53.769 158.821 54.294 158.821 54.899C158.821 55.881 158.446 56.661 157.694 57.241C156.941 57.821 155.919 58.111 154.631 58.111C153.822 58.1203 153.021 57.9591 152.279 57.638C151.564 57.322 151.009 56.888 150.611 56.33C150.214 55.775 150.017 55.126 150.017 54.388H152.065C152.065 55.057 152.287 55.575 152.729 55.943C153.17 56.31 153.804 56.493 154.631 56.493C155.344 56.493 155.877 56.35 156.238 56.061C156.595 55.773 156.776 55.39 156.776 54.916L156.773 54.914Z" fill="#C4C4CC"/>
<path d="M38.958 65H34V12H38.958V65Z" fill="#00B37E"/>
<path d="M52.0017 15.112C51.9893 14.7752 52.0455 14.4394 52.1667 14.125C52.2867 13.811 52.4707 13.53 52.7017 13.295C53.2307 12.8302 53.9105 12.5733 54.6147 12.572C55.3127 12.572 55.9887 12.829 56.5267 13.295C56.7567 13.535 56.9387 13.819 57.0627 14.132C57.313 14.7679 57.313 15.4751 57.0627 16.111C56.9402 16.4222 56.7581 16.7066 56.5267 16.948C56 17.4128 55.3221 17.6698 54.6197 17.671C53.9171 17.669 53.2391 17.4121 52.7117 16.948C52.4768 16.7077 52.2937 16.4218 52.1737 16.108C52.0529 15.7901 51.9945 15.452 52.0017 15.112ZM56.9617 38.258H52.2727V19.862H56.9617V38.259V38.258ZM60.0117 28.973C60.0117 26.12 60.6977 23.828 62.0667 22.09C62.7128 21.2455 63.5519 20.5681 64.5137 20.1147C65.4756 19.6613 66.5321 19.445 67.5947 19.484C68.5023 19.4368 69.4084 19.601 70.2417 19.9637C71.075 20.3264 71.8127 20.8776 72.3967 21.574L72.5967 19.823H77.1347V37.773C77.1706 39.2658 76.7822 40.7381 76.0147 42.019C75.259 43.2257 74.1644 44.1829 72.8677 44.771C71.3747 45.4272 69.7561 45.7481 68.1257 45.711C66.7477 45.711 65.3857 45.432 64.1177 44.899C62.9693 44.4631 61.954 43.736 61.1717 42.789L63.3797 39.769C63.9388 40.4267 64.6354 40.9538 65.4203 41.3132C66.2053 41.6726 67.0594 41.8555 67.9227 41.849C69.0558 41.9139 70.1695 41.5339 71.0267 40.79C71.4091 40.3956 71.7048 39.9256 71.8948 39.4102C72.0847 38.8947 72.1648 38.3452 72.1297 37.797V36.803C71.5613 37.4429 70.8577 37.9485 70.07 38.2832C69.2822 38.6178 68.4299 38.7732 67.5747 38.738C66.5207 38.7656 65.4752 38.5422 64.5247 38.086C63.5771 37.631 62.7517 36.9567 62.1167 36.119C60.7197 34.367 60.0317 32.03 60.0317 29.177V28.967H60.0067L60.0117 28.973ZM65.0087 29.328C64.9319 30.7212 65.2904 32.1038 66.0347 33.284C66.3395 33.7432 66.7567 34.1168 67.2466 34.3693C67.7365 34.6219 68.2828 34.745 68.8337 34.727C69.4847 34.772 70.1337 34.639 70.7117 34.337C71.2884 34.0391 71.7716 33.5874 72.1077 33.032V25.207C71.7805 24.6522 71.3046 24.2001 70.7337 23.902C70.1614 23.6031 69.5178 23.4682 68.8737 23.512C68.3147 23.4944 67.7604 23.6201 67.2637 23.877C66.7688 24.133 66.3487 24.5131 66.0447 24.98C65.3567 25.955 65.0087 27.398 65.0087 29.328ZM85.0977 19.833L85.2557 22.029C85.8824 21.2081 86.695 20.5477 87.6267 20.102C88.5527 19.6594 89.5719 19.4467 90.5977 19.482C92.5677 19.482 94.0357 20.079 94.9877 21.272C95.9407 22.466 96.4437 24.208 96.4737 26.565V38.814H91.5117V26.683C91.585 25.8436 91.3409 25.0072 90.8277 24.339C90.5149 24.0702 90.1514 23.8669 89.7587 23.741C89.3681 23.6155 88.956 23.5713 88.5477 23.611C87.9098 23.5857 87.278 23.7432 86.7267 24.065C86.1737 24.385 85.7167 24.859 85.4137 25.432V38.802H80.4497V19.845L85.0977 19.833ZM99.5117 15.112C99.4999 14.7731 99.563 14.4357 99.6967 14.124C99.8321 13.8083 100.033 13.525 100.287 13.293C100.892 12.8228 101.637 12.5683 102.404 12.57C103.176 12.57 103.924 12.826 104.521 13.293C105.029 13.779 105.313 14.435 105.313 15.119C105.313 15.802 105.029 16.459 104.521 16.945C103.918 17.4152 103.175 17.6698 102.411 17.668C101.641 17.668 100.894 17.411 100.301 16.945C100.046 16.7101 99.8436 16.4242 99.7067 16.106C99.5717 15.7925 99.5068 15.4532 99.5167 15.112H99.5117ZM104.995 38.261H99.8147V19.86H104.995V38.261ZM114.454 15.334V19.946H117.561V23.623H114.454V33.005C114.404 33.535 114.545 34.068 114.849 34.5C115.047 34.6779 115.281 34.8104 115.535 34.8881C115.79 34.9658 116.058 34.987 116.322 34.95C116.798 34.952 117.272 34.915 117.743 34.836V38.639C116.792 38.9392 115.801 39.0907 114.804 39.088C111.406 39.088 109.676 37.313 109.614 33.768V23.644H106.972V19.968H109.615V15.356H114.456V15.331L114.454 15.334ZM128.487 39.08C127.247 39.1286 126.01 38.9279 124.849 38.4899C123.688 38.0519 122.626 37.3855 121.728 36.53C119.988 34.831 119.123 32.573 119.123 29.733V29.239C119.089 27.4833 119.465 25.744 120.221 24.159C120.898 22.7257 121.979 21.5215 123.332 20.694C124.719 19.8705 126.308 19.4481 127.922 19.474C130.499 19.474 132.542 20.289 134.02 21.923C135.498 23.556 136.246 25.863 136.246 28.852V30.907H124.236C124.346 32.0443 124.87 33.1015 125.709 33.878C126.567 34.6305 127.679 35.0278 128.82 34.989C129.692 35.0284 130.561 34.8568 131.353 34.4886C132.145 34.1203 132.836 33.5665 133.368 32.874L135.844 35.655C135.063 36.7506 134.003 37.6165 132.774 38.162C131.432 38.7868 129.966 39.0999 128.487 39.078V39.08ZM127.893 23.566C127.439 23.5482 126.986 23.6295 126.567 23.8043C126.148 23.979 125.772 24.2431 125.465 24.578C124.789 25.4095 124.375 26.423 124.277 27.49H131.283V27.085C131.323 26.1318 130.998 25.1991 130.375 24.477C130.051 24.1645 129.667 23.9224 129.245 23.7661C128.823 23.6098 128.374 23.5427 127.925 23.569H127.895L127.893 23.566ZM149.771 38.259H144.814V12H149.771V38.259ZM164.209 38.259C163.982 37.815 163.817 37.262 163.713 36.6C162.517 37.933 160.962 38.602 159.047 38.602C157.236 38.602 155.733 38.079 154.543 37.03C153.352 35.981 152.757 34.658 152.757 33.064C152.757 31.104 153.482 29.6 154.936 28.551C156.389 27.502 158.489 26.971 161.236 26.961H163.509V25.901C163.509 25.047 163.289 24.361 162.85 23.85C162.41 23.337 161.719 23.08 160.772 23.08C159.94 23.08 159.286 23.28 158.815 23.68C158.341 24.08 158.107 24.625 158.107 25.32H153.166C153.166 24.25 153.497 23.258 154.158 22.347C154.82 21.437 155.755 20.721 156.962 20.203C158.168 19.685 159.526 19.425 161.031 19.425C163.311 19.425 165.12 19.998 166.46 21.143C167.8 22.288 168.469 23.899 168.469 25.973V33.99C168.481 35.744 168.725 37.072 169.204 37.973V38.263H164.212L164.209 38.259ZM160.123 34.824C160.851 34.824 161.525 34.661 162.139 34.338C162.753 34.012 163.21 33.578 163.506 33.03V29.849H161.66C159.188 29.849 157.87 30.703 157.712 32.413L157.695 32.704C157.695 33.318 157.912 33.827 158.344 34.227C158.778 34.627 159.37 34.827 160.123 34.827V34.824ZM188.58 29.183C188.58 32.146 187.948 34.456 186.682 36.114C185.417 37.773 183.65 38.602 181.382 38.602C179.376 38.602 177.774 37.832 176.577 36.294L176.355 38.261H171.911V12.001H176.851V21.419C177.991 20.087 179.489 19.419 181.347 19.419C183.603 19.419 185.372 20.247 186.655 21.906C187.938 23.564 188.578 25.898 188.578 28.906V29.18L188.58 29.183ZM183.64 28.825C183.64 26.957 183.344 25.592 182.751 24.731C182.159 23.87 181.276 23.441 180.101 23.441C178.529 23.441 177.446 24.084 176.854 25.373V32.672C177.458 33.97 178.551 34.622 180.136 34.622C181.72 34.622 182.779 33.834 183.282 32.262C183.521 31.51 183.64 30.365 183.64 28.825Z" fill="white"/>
</svg>
